<svg xmlns="http://www.w3.org/2000/svg" version="1.1" xmlns:xlink="http://www.w3.org/1999/xlink" xmlns:svgjs="http://svgjs.dev/svgjs" viewBox="0 0 12.546074712508139 2.2580641933809407"><g transform="matrix(1,0,0,1,1.8186705672786356,0.4375765520576874)"><rect width="12.546074712508139" height="12.546074712508139" x="-1.8186705672786356" y="-5.5815818116212865" fill="#1c3423"></rect><g><path d=" M 0.468 1.1099999999999999 Q 0.426 1.1099999999999999 0.399 1.0837499999999998 Q 0.372 1.0574999999999999 0.372 1.0185 L 0.372 0.14849999999999985 L 0.5670000000000001 0.14849999999999985 L 0.5670000000000001 1.0185 Q 0.5670000000000001 1.0574999999999999 0.53925 1.0837499999999998 Q 0.5115000000000001 1.1099999999999999 0.468 1.1099999999999999 M 0.1365 0.23249999999999982 Q 0.0975 0.23249999999999982 0.07125000000000001 0.2084999999999999 Q 0.045 0.1844999999999999 0.045 0.14549999999999985 Q 0.045 0.10649999999999982 0.07125000000000001 0.08324999999999982 Q 0.0975 0.05999999999999983 0.1365 0.05999999999999983 L 0.8025 0.05999999999999983 Q 0.8415 0.05999999999999983 0.86775 0.08399999999999985 Q 0.894 0.10799999999999987 0.894 0.1469999999999999 Q 0.894 0.18599999999999983 0.86775 0.20924999999999983 Q 0.8415 0.23249999999999982 0.8025 0.23249999999999982 L 0.1365 0.23249999999999982 M 1.55100146484375 0.29249999999999987 Q 1.5900014648437502 0.29249999999999987 1.61550146484375 0.31799999999999984 Q 1.6410014648437499 0.3434999999999998 1.6410014648437499 0.3839999999999999 L 1.6410014648437499 1.0185 Q 1.6410014648437499 1.0574999999999999 1.61550146484375 1.0837499999999998 Q 1.5900014648437502 1.1099999999999999 1.55100146484375 1.1099999999999999 Q 1.5120014648437499 1.1099999999999999 1.48650146484375 1.0837499999999998 Q 1.4610014648437502 1.0574999999999999 1.4610014648437502 1.0185 L 1.4610014648437502 0.9449999999999998 L 1.49400146484375 0.9584999999999999 Q 1.49400146484375 0.9779999999999999 1.4730014648437502 1.00575 Q 1.45200146484375 1.0334999999999999 1.41600146484375 1.0604999999999998 Q 1.3800014648437502 1.0875 1.3312514648437501 1.10625 Q 1.28250146484375 1.1249999999999998 1.22550146484375 1.1249999999999998 Q 1.12200146484375 1.1249999999999998 1.03800146484375 1.07175 Q 0.95400146484375 1.0185 0.90525146484375 0.9247499999999998 Q 0.85650146484375 0.8309999999999998 0.85650146484375 0.7094999999999998 Q 0.85650146484375 0.5864999999999999 0.90525146484375 0.4927499999999999 Q 0.95400146484375 0.3989999999999999 1.03650146484375 0.3457499999999999 Q 1.11900146484375 0.29249999999999987 1.21950146484375 0.29249999999999987 Q 1.28400146484375 0.29249999999999987 1.33800146484375 0.31199999999999983 Q 1.39200146484375 0.3314999999999999 1.43175146484375 0.3614999999999998 Q 1.47150146484375 0.39149999999999985 1.49325146484375 0.4222499999999999 Q 1.51500146484375 0.45299999999999985 1.51500146484375 0.47399999999999987 L 1.4610014648437502 0.4934999999999998 L 1.4610014648437502 0.3839999999999999 Q 1.4610014648437502 0.34499999999999986 1.48650146484375 0.31874999999999987 Q 1.5120014648437499 0.29249999999999987 1.55100146484375 0.29249999999999987 M 1.24800146484375 0.9599999999999999 Q 1.31400146484375 0.9599999999999999 1.36350146484375 0.9269999999999998 Q 1.41300146484375 0.8939999999999999 1.44075146484375 0.8369999999999999 Q 1.46850146484375 0.7799999999999998 1.46850146484375 0.7094999999999998 Q 1.46850146484375 0.6374999999999998 1.44075146484375 0.5804999999999999 Q 1.41300146484375 0.5234999999999999 1.36350146484375 0.4904999999999998 Q 1.31400146484375 0.4574999999999999 1.24800146484375 0.4574999999999999 Q 1.18350146484375 0.4574999999999999 1.13400146484375 0.4904999999999998 Q 1.08450146484375 0.5234999999999999 1.05675146484375 0.5804999999999999 Q 1.02900146484375 0.6374999999999998 1.02900146484375 0.7094999999999998 Q 1.02900146484375 0.7799999999999998 1.05675146484375 0.8369999999999999 Q 1.08450146484375 0.8939999999999999 1.13400146484375 0.9269999999999998 Q 1.18350146484375 0.9599999999999999 1.24800146484375 0.9599999999999999 M 1.804480224609375 0.9854999999999998 Q 1.789480224609375 0.9644999999999999 1.7909802246093751 0.9314999999999999 Q 1.792480224609375 0.8984999999999999 1.829980224609375 0.8744999999999998 Q 1.853980224609375 0.8594999999999999 1.880980224609375 0.8617499999999999 Q 1.907980224609375 0.8639999999999999 1.933480224609375 0.8894999999999998 Q 1.976980224609375 0.9329999999999998 2.024980224609375 0.9569999999999999 Q 2.072980224609375 0.9809999999999999 2.144980224609375 0.9809999999999999 Q 2.167480224609375 0.9794999999999998 2.194480224609375 0.9742499999999998 Q 2.221480224609375 0.9689999999999999 2.241730224609375 0.9502499999999998 Q 2.261980224609375 0.9314999999999999 2.261980224609375 0.8924999999999998 Q 2.261980224609375 0.8594999999999999 2.239480224609375 0.8399999999999999 Q 2.216980224609375 0.8204999999999999 2.180230224609375 0.8069999999999999 Q 2.143480224609375 0.7934999999999999 2.098480224609375 0.7814999999999999 Q 2.051980224609375 0.7679999999999998 2.003230224609375 0.7514999999999998 Q 1.954480224609375 0.7349999999999999 1.9139802246093751 0.7087499999999999 Q 1.873480224609375 0.6824999999999999 1.847980224609375 0.6389999999999998 Q 1.822480224609375 0.5954999999999999 1.822480224609375 0.5294999999999999 Q 1.822480224609375 0.4544999999999999 1.864480224609375 0.4019999999999999 Q 1.906480224609375 0.3494999999999998 1.9732302246093751 0.32099999999999984 Q 2.039980224609375 0.29249999999999987 2.113480224609375 0.29249999999999987 Q 2.159980224609375 0.29249999999999987 2.210980224609375 0.30374999999999985 Q 2.261980224609375 0.31499999999999984 2.308480224609375 0.3397499999999999 Q 2.354980224609375 0.3644999999999998 2.3864802246093753 0.4049999999999999 Q 2.402980224609375 0.4274999999999999 2.405980224609375 0.45899999999999985 Q 2.408980224609375 0.4904999999999998 2.377480224609375 0.5159999999999999 Q 2.354980224609375 0.5339999999999998 2.324980224609375 0.5317499999999998 Q 2.294980224609375 0.5294999999999999 2.275480224609375 0.5114999999999998 Q 2.249980224609375 0.4784999999999998 2.207230224609375 0.45899999999999985 Q 2.164480224609375 0.4394999999999999 2.108980224609375 0.4394999999999999 Q 2.086480224609375 0.4394999999999999 2.060230224609375 0.44474999999999987 Q 2.033980224609375 0.44999999999999984 2.014480224609375 0.46724999999999983 Q 1.994980224609375 0.4844999999999998 1.994980224609375 0.5219999999999999 Q 1.994980224609375 0.5564999999999999 2.017480224609375 0.5767499999999999 Q 2.039980224609375 0.5969999999999999 2.078230224609375 0.6097499999999999 Q 2.116480224609375 0.6224999999999998 2.159980224609375 0.6344999999999998 Q 2.204980224609375 0.6464999999999999 2.251480224609375 0.6629999999999998 Q 2.297980224609375 0.6794999999999999 2.336980224609375 0.7064999999999999 Q 2.375980224609375 0.7334999999999998 2.399980224609375 0.7762499999999999 Q 2.423980224609375 0.819 2.423980224609375 0.8849999999999999 Q 2.423980224609375 0.9614999999999999 2.378980224609375 1.0154999999999998 Q 2.333980224609375 1.0695 2.266480224609375 1.0972499999999998 Q 2.1989802246093753 1.1249999999999998 2.1284802246093752 1.1249999999999998 Q 2.039980224609375 1.1249999999999998 1.951480224609375 1.09425 Q 1.862980224609375 1.0635 1.804480224609375 0.9854999999999998 M 2.69397216796875 1.1099999999999999 Q 2.65497216796875 1.1099999999999999 2.62947216796875 1.0837499999999998 Q 2.6039721679687498 1.0574999999999999 2.6039721679687498 1.0185 L 2.6039721679687498 0.09149999999999991 Q 2.6039721679687498 0.05249999999999977 2.62947216796875 0.026249999999999885 Q 2.65497216796875 -2.220446049250313e-16 2.69397216796875 -2.220446049250313e-16 Q 2.7329721679687498 -2.220446049250313e-16 2.75847216796875 0.026249999999999885 Q 2.78397216796875 0.05249999999999977 2.78397216796875 0.09149999999999991 L 2.78397216796875 1.0185 Q 2.78397216796875 1.0574999999999999 2.75847216796875 1.0837499999999998 Q 2.7329721679687498 1.1099999999999999 2.69397216796875 1.1099999999999999 M 3.17097216796875 0.3074999999999999 Q 3.20547216796875 0.3074999999999999 3.23097216796875 0.33599999999999985 Q 3.25647216796875 0.3644999999999998 3.25647216796875 0.39149999999999985 Q 3.25647216796875 0.4274999999999999 3.22047216796875 0.45899999999999985 L 2.76897216796875 0.8744999999999998 L 2.76147216796875 0.6674999999999999 L 3.10497216796875 0.33599999999999985 Q 3.13347216796875 0.3074999999999999 3.17097216796875 0.3074999999999999 M 3.19347216796875 1.1084999999999998 Q 3.15447216796875 1.1084999999999998 3.12747216796875 1.0784999999999998 L 2.8499721679687497 0.7844999999999999 L 2.98647216796875 0.6584999999999999 L 3.25647216796875 0.9524999999999999 Q 3.28497216796875 0.9824999999999999 3.28497216796875 1.0199999999999998 Q 3.28497216796875 1.059 3.25422216796875 1.0837499999999998 Q 3.22347216796875 1.1084999999999998 3.19347216796875 1.1084999999999998 M 4.001970703125 0.058499999999999774 Q 4.022970703125 0.058499999999999774 4.046220703125 0.06974999999999976 Q 4.069470703125 0.08099999999999996 4.081470703125 0.09899999999999975 L 4.445970703125 0.6599999999999999 L 4.370970703125 0.6569999999999998 L 4.744470703125 0.09899999999999975 Q 4.772970703125 0.058499999999999774 4.817970703125001 0.058499999999999774 Q 4.853970703125 0.058499999999999774 4.8824707031250005 0.08399999999999985 Q 4.910970703125001 0.10949999999999993 4.910970703125001 0.1499999999999999 L 4.910970703125001 1.0185 Q 4.910970703125001 1.0574999999999999 4.885470703125 1.0837499999999998 Q 4.859970703125001 1.1099999999999999 4.817970703125001 1.1099999999999999 Q 4.775970703125 1.1099999999999999 4.749720703125 1.0837499999999998 Q 4.723470703125 1.0574999999999999 4.723470703125 1.0185 L 4.723470703125 0.31199999999999983 L 4.781970703125 0.3254999999999999 L 4.475970703125 0.7919999999999998 Q 4.462470703125 0.8084999999999999 4.442220703125 0.8204999999999999 Q 4.421970703125 0.8324999999999998 4.400970703125 0.8309999999999998 Q 4.381470703125 0.8324999999999998 4.361220703125 0.8204999999999999 Q 4.340970703125 0.8084999999999999 4.327470703125 0.7919999999999998 L 4.040970703125 0.33899999999999986 L 4.079970703125 0.25949999999999984 L 4.079970703125 1.0185 Q 4.079970703125 1.0574999999999999 4.055970703125 1.0837499999999998 Q 4.031970703125 1.1099999999999999 3.992970703125 1.1099999999999999 Q 3.955470703125 1.1099999999999999 3.931470703125 1.0837499999999998 Q 3.907470703125 1.0574999999999999 3.907470703125 1.0185 L 3.907470703125 0.1499999999999999 Q 3.907470703125 0.11249999999999982 3.935220703125 0.08549999999999991 Q 3.9629707031250003 0.058499999999999774 4.001970703125 0.058499999999999774 M 5.78542529296875 0.29249999999999987 Q 5.8244252929687494 0.29249999999999987 5.8499252929687495 0.31799999999999984 Q 5.87542529296875 0.3434999999999998 5.87542529296875 0.3839999999999999 L 5.87542529296875 1.0185 Q 5.87542529296875 1.0574999999999999 5.8499252929687495 1.0837499999999998 Q 5.8244252929687494 1.1099999999999999 5.78542529296875 1.1099999999999999 Q 5.74642529296875 1.1099999999999999 5.72092529296875 1.0837499999999998 Q 5.69542529296875 1.0574999999999999 5.69542529296875 1.0185 L 5.69542529296875 0.9449999999999998 L 5.72842529296875 0.9584999999999999 Q 5.72842529296875 0.9779999999999999 5.70742529296875 1.00575 Q 5.6864252929687495 1.0334999999999999 5.65042529296875 1.0604999999999998 Q 5.61442529296875 1.0875 5.56567529296875 1.10625 Q 5.51692529296875 1.1249999999999998 5.45992529296875 1.1249999999999998 Q 5.3564252929687495 1.1249999999999998 5.27242529296875 1.07175 Q 5.18842529296875 1.0185 5.13967529296875 0.9247499999999998 Q 5.09092529296875 0.8309999999999998 5.09092529296875 0.7094999999999998 Q 5.09092529296875 0.5864999999999999 5.13967529296875 0.4927499999999999 Q 5.18842529296875 0.3989999999999999 5.27092529296875 0.3457499999999999 Q 5.35342529296875 0.29249999999999987 5.45392529296875 0.29249999999999987 Q 5.51842529296875 0.29249999999999987 5.57242529296875 0.31199999999999983 Q 5.62642529296875 0.3314999999999999 5.66617529296875 0.3614999999999998 Q 5.70592529296875 0.39149999999999985 5.72767529296875 0.4222499999999999 Q 5.74942529296875 0.45299999999999985 5.74942529296875 0.47399999999999987 L 5.69542529296875 0.4934999999999998 L 5.69542529296875 0.3839999999999999 Q 5.69542529296875 0.34499999999999986 5.72092529296875 0.31874999999999987 Q 5.74642529296875 0.29249999999999987 5.78542529296875 0.29249999999999987 M 5.48242529296875 0.9599999999999999 Q 5.54842529296875 0.9599999999999999 5.59792529296875 0.9269999999999998 Q 5.64742529296875 0.8939999999999999 5.67517529296875 0.8369999999999999 Q 5.70292529296875 0.7799999999999998 5.70292529296875 0.7094999999999998 Q 5.70292529296875 0.6374999999999998 5.67517529296875 0.5804999999999999 Q 5.64742529296875 0.5234999999999999 5.59792529296875 0.4904999999999998 Q 5.54842529296875 0.4574999999999999 5.48242529296875 0.4574999999999999 Q 5.41792529296875 0.4574999999999999 5.36842529296875 0.4904999999999998 Q 5.31892529296875 0.5234999999999999 5.29117529296875 0.5804999999999999 Q 5.2634252929687495 0.6374999999999998 5.2634252929687495 0.7094999999999998 Q 5.2634252929687495 0.7799999999999998 5.29117529296875 0.8369999999999999 Q 5.31892529296875 0.8939999999999999 5.36842529296875 0.9269999999999998 Q 5.41792529296875 0.9599999999999999 5.48242529296875 0.9599999999999999 M 6.514404052734374 0.29249999999999987 Q 6.625404052734375 0.29249999999999987 6.683154052734374 0.33899999999999986 Q 6.740904052734375 0.38549999999999984 6.762654052734375 0.4627499999999999 Q 6.7844040527343745 0.5399999999999998 6.7844040527343745 0.6344999999999998 L 6.7844040527343745 1.0185 Q 6.7844040527343745 1.0574999999999999 6.7589040527343744 1.0837499999999998 Q 6.733404052734374 1.1099999999999999 6.694404052734375 1.1099999999999999 Q 6.655404052734374 1.1099999999999999 6.629904052734375 1.0837499999999998 Q 6.604404052734375 1.0574999999999999 6.604404052734375 1.0185 L 6.604404052734375 0.6344999999999998 Q 6.604404052734375 0.5849999999999999 6.591654052734374 0.5452499999999999 Q 6.578904052734375 0.5054999999999998 6.545904052734374 0.4814999999999998 Q 6.512904052734375 0.4574999999999999 6.451404052734374 0.4574999999999999 Q 6.391404052734375 0.4574999999999999 6.350154052734375 0.4814999999999998 Q 6.308904052734374 0.5054999999999998 6.287154052734374 0.5452499999999999 Q 6.265404052734374 0.5849999999999999 6.265404052734374 0.6344999999999998 L 6.265404052734374 1.0185 Q 6.265404052734374 1.0574999999999999 6.239904052734374 1.0837499999999998 Q 6.214404052734374 1.1099999999999999 6.1754040527343745 1.1099999999999999 Q 6.136404052734375 1.1099999999999999 6.110904052734375 1.0837499999999998 Q 6.085404052734375 1.0574999999999999 6.085404052734375 1.0185 L 6.085404052734375 0.3989999999999999 Q 6.085404052734375 0.3599999999999999 6.110904052734375 0.3337499999999999 Q 6.136404052734375 0.3074999999999999 6.1754040527343745 0.3074999999999999 Q 6.214404052734374 0.3074999999999999 6.239904052734374 0.3337499999999999 Q 6.265404052734374 0.3599999999999999 6.265404052734374 0.3989999999999999 L 6.265404052734374 0.4634999999999999 L 6.242904052734374 0.45899999999999985 Q 6.256404052734375 0.4334999999999999 6.281904052734374 0.4042499999999999 Q 6.307404052734374 0.3749999999999999 6.341904052734375 0.3494999999999998 Q 6.376404052734374 0.32399999999999984 6.419904052734375 0.3082499999999999 Q 6.463404052734375 0.29249999999999987 6.514404052734374 0.29249999999999987 M 7.643916503906249 0.29249999999999987 Q 7.682916503906249 0.29249999999999987 7.708416503906249 0.31799999999999984 Q 7.733916503906249 0.3434999999999998 7.733916503906249 0.3839999999999999 L 7.733916503906249 1.0185 Q 7.733916503906249 1.0574999999999999 7.708416503906249 1.0837499999999998 Q 7.682916503906249 1.1099999999999999 7.643916503906249 1.1099999999999999 Q 7.604916503906249 1.1099999999999999 7.579416503906249 1.0837499999999998 Q 7.553916503906249 1.0574999999999999 7.553916503906249 1.0185 L 7.553916503906249 0.9449999999999998 L 7.58691650390625 0.9584999999999999 Q 7.58691650390625 0.9779999999999999 7.56591650390625 1.00575 Q 7.544916503906249 1.0334999999999999 7.508916503906249 1.0604999999999998 Q 7.47291650390625 1.0875 7.42416650390625 1.10625 Q 7.37541650390625 1.1249999999999998 7.318416503906249 1.1249999999999998 Q 7.214916503906249 1.1249999999999998 7.130916503906249 1.07175 Q 7.04691650390625 1.0185 6.9981665039062495 0.9247499999999998 Q 6.949416503906249 0.8309999999999998 6.949416503906249 0.7094999999999998 Q 6.949416503906249 0.5864999999999999 6.9981665039062495 0.4927499999999999 Q 7.04691650390625 0.3989999999999999 7.129416503906249 0.3457499999999999 Q 7.21191650390625 0.29249999999999987 7.312416503906249 0.29249999999999987 Q 7.37691650390625 0.29249999999999987 7.430916503906249 0.31199999999999983 Q 7.484916503906249 0.3314999999999999 7.524666503906249 0.3614999999999998 Q 7.56441650390625 0.39149999999999985 7.58616650390625 0.4222499999999999 Q 7.6079165039062495 0.45299999999999985 7.6079165039062495 0.47399999999999987 L 7.553916503906249 0.4934999999999998 L 7.553916503906249 0.3839999999999999 Q 7.553916503906249 0.34499999999999986 7.579416503906249 0.31874999999999987 Q 7.604916503906249 0.29249999999999987 7.643916503906249 0.29249999999999987 M 7.340916503906249 0.9599999999999999 Q 7.406916503906249 0.9599999999999999 7.456416503906249 0.9269999999999998 Q 7.505916503906249 0.8939999999999999 7.533666503906249 0.8369999999999999 Q 7.5614165039062495 0.7799999999999998 7.5614165039062495 0.7094999999999998 Q 7.5614165039062495 0.6374999999999998 7.533666503906249 0.5804999999999999 Q 7.505916503906249 0.5234999999999999 7.456416503906249 0.4904999999999998 Q 7.406916503906249 0.4574999999999999 7.340916503906249 0.4574999999999999 Q 7.276416503906249 0.4574999999999999 7.226916503906249 0.4904999999999998 Q 7.177416503906249 0.5234999999999999 7.149666503906249 0.5804999999999999 Q 7.121916503906249 0.6374999999999998 7.121916503906249 0.7094999999999998 Q 7.121916503906249 0.7799999999999998 7.149666503906249 0.8369999999999999 Q 7.177416503906249 0.8939999999999999 7.226916503906249 0.9269999999999998 Q 7.276416503906249 0.9599999999999999 7.340916503906249 0.9599999999999999 M 8.269395263671873 0.29249999999999987 Q 8.332395263671874 0.29249999999999987 8.384895263671874 0.31199999999999983 Q 8.437395263671874 0.3314999999999999 8.475645263671874 0.3614999999999998 Q 8.513895263671873 0.39149999999999985 8.535645263671874 0.4222499999999999 Q 8.557395263671873 0.45299999999999985 8.557395263671873 0.47399999999999987 L 8.518395263671874 0.4934999999999998 L 8.518395263671874 0.3839999999999999 Q 8.518395263671874 0.34499999999999986 8.543895263671875 0.31874999999999987 Q 8.569395263671874 0.29249999999999987 8.608395263671873 0.29249999999999987 Q 8.647395263671873 0.29249999999999987 8.672895263671874 0.31799999999999984 Q 8.698395263671873 0.3434999999999998 8.698395263671873 0.3839999999999999 L 8.698395263671873 1.0514999999999999 Q 8.698395263671873 1.182 8.642145263671875 1.2607499999999998 Q 8.585895263671874 1.3395 8.494395263671874 1.37475 Q 8.402895263671875 1.41 8.297895263671874 1.41 Q 8.267895263671875 1.41 8.219895263671875 1.4024999999999999 Q 8.171895263671875 1.395 8.128395263671873 1.3844999999999998 Q 8.084895263671873 1.3739999999999999 8.062395263671874 1.3649999999999998 Q 8.017395263671874 1.3455 8.000145263671874 1.31625 Q 7.982895263671874 1.287 7.993395263671874 1.254 Q 8.006895263671874 1.2105 8.036895263671873 1.19475 Q 8.066895263671874 1.1789999999999998 8.099895263671874 1.1909999999999998 Q 8.114895263671874 1.1954999999999998 8.149395263671874 1.2089999999999999 Q 8.183895263671873 1.2225 8.225145263671873 1.23375 Q 8.266395263671875 1.2449999999999999 8.297895263671874 1.2449999999999999 Q 8.410395263671873 1.2449999999999999 8.464395263671873 1.2 Q 8.518395263671874 1.1549999999999998 8.518395263671874 1.0755 L 8.518395263671874 0.9449999999999998 L 8.536395263671874 0.9584999999999999 Q 8.536395263671874 0.9779999999999999 8.516145263671874 1.00575 Q 8.495895263671875 1.0334999999999999 8.460645263671873 1.0604999999999998 Q 8.425395263671874 1.0875 8.377395263671874 1.10625 Q 8.329395263671874 1.1249999999999998 8.275395263671873 1.1249999999999998 Q 8.168895263671875 1.1249999999999998 8.083395263671873 1.07175 Q 7.997895263671874 1.0185 7.948395263671874 0.9247499999999998 Q 7.898895263671874 0.8309999999999998 7.898895263671874 0.7094999999999998 Q 7.898895263671874 0.5864999999999999 7.948395263671874 0.4927499999999999 Q 7.997895263671874 0.3989999999999999 8.081895263671873 0.3457499999999999 Q 8.165895263671874 0.29249999999999987 8.269395263671873 0.29249999999999987 M 8.297895263671874 0.4574999999999999 Q 8.230395263671873 0.4574999999999999 8.179395263671873 0.4904999999999998 Q 8.128395263671873 0.5234999999999999 8.099895263671874 0.5804999999999999 Q 8.071395263671874 0.6374999999999998 8.071395263671874 0.7094999999999998 Q 8.071395263671874 0.7799999999999998 8.099895263671874 0.8369999999999999 Q 8.128395263671873 0.8939999999999999 8.179395263671873 0.9269999999999998 Q 8.230395263671873 0.9599999999999999 8.297895263671874 0.9599999999999999 Q 8.366895263671873 0.9599999999999999 8.417895263671873 0.9269999999999998 Q 8.468895263671874 0.8939999999999999 8.497395263671875 0.8369999999999999 Q 8.525895263671874 0.7799999999999998 8.525895263671874 0.7094999999999998 Q 8.525895263671874 0.6374999999999998 8.497395263671875 0.5804999999999999 Q 8.468895263671874 0.5234999999999999 8.417895263671873 0.4904999999999998 Q 8.366895263671873 0.4574999999999999 8.297895263671874 0.4574999999999999 M 9.248859374999999 1.1249999999999998 Q 9.121359374999999 1.1249999999999998 9.027609374999999 1.07175 Q 8.933859374999999 1.0185 8.883609374999999 0.9269999999999998 Q 8.833359374999999 0.8354999999999999 8.833359374999999 0.7199999999999999 Q 8.833359374999999 0.5849999999999999 8.888109374999999 0.4897499999999999 Q 8.942859375 0.39449999999999985 9.031359375 0.3434999999999998 Q 9.119859374999999 0.29249999999999987 9.218859375 0.29249999999999987 Q 9.295359374999999 0.29249999999999987 9.363609375 0.32399999999999984 Q 9.431859374999998 0.3554999999999998 9.484359374999999 0.4102499999999999 Q 9.536859374999999 0.46499999999999986 9.567609374999998 0.5369999999999998 Q 9.598359375 0.6089999999999999 9.598359375 0.69 Q 9.596859375 0.7259999999999999 9.569859374999998 0.7484999999999999 Q 9.542859374999999 0.7709999999999999 9.506859374999998 0.7709999999999999 L 8.933859374999999 0.7709999999999999 L 8.888859375 0.6209999999999999 L 9.439359374999999 0.6209999999999999 L 9.406359375 0.6509999999999998 L 9.406359375 0.6104999999999998 Q 9.403359374999999 0.5669999999999998 9.375609374999998 0.5324999999999999 Q 9.347859374999999 0.4979999999999999 9.306609374999999 0.4777499999999999 Q 9.265359375 0.4574999999999999 9.218859375 0.4574999999999999 Q 9.173859375 0.4574999999999999 9.134859374999998 0.4694999999999999 Q 9.095859374999998 0.4814999999999998 9.067359374999999 0.5099999999999999 Q 9.038859374999998 0.5384999999999999 9.022359374999999 0.5864999999999999 Q 9.005859374999998 0.6344999999999998 9.005859374999998 0.7079999999999999 Q 9.005859374999998 0.7889999999999999 9.039609374999998 0.8452499999999998 Q 9.073359374999999 0.9014999999999999 9.126609375 0.9307499999999999 Q 9.179859375 0.9599999999999999 9.239859374999998 0.9599999999999999 Q 9.295359374999999 0.9599999999999999 9.328359374999998 0.9509999999999998 Q 9.361359375 0.9419999999999998 9.381609374999998 0.9292499999999999 Q 9.401859374999999 0.9164999999999999 9.418359374999998 0.9074999999999999 Q 9.445359374999999 0.8939999999999999 9.469359374999998 0.8939999999999999 Q 9.502359375 0.8939999999999999 9.524109374999998 0.9164999999999999 Q 9.545859375 0.9389999999999998 9.545859375 0.9689999999999999 Q 9.545859375 1.0094999999999998 9.503859375 1.0425 Q 9.464859374999998 1.0755 9.394359374999999 1.10025 Q 9.323859374999998 1.1249999999999998 9.248859374999999 1.1249999999999998 M 9.853385009765624 1.1099999999999999 Q 9.814385009765624 1.1099999999999999 9.788885009765623 1.0837499999999998 Q 9.763385009765624 1.0574999999999999 9.763385009765624 1.0185 L 9.763385009765624 0.3989999999999999 Q 9.763385009765624 0.3599999999999999 9.788885009765623 0.3337499999999999 Q 9.814385009765624 0.3074999999999999 9.853385009765624 0.3074999999999999 Q 9.892385009765624 0.3074999999999999 9.917885009765625 0.3337499999999999 Q 9.943385009765624 0.3599999999999999 9.943385009765624 0.3989999999999999 L 9.943385009765624 0.5399999999999998 L 9.932885009765624 0.4394999999999999 Q 9.949385009765624 0.40349999999999986 9.975635009765623 0.3757499999999998 Q 10.001885009765624 0.34799999999999986 10.034885009765624 0.3292499999999998 Q 10.067885009765623 0.3104999999999999 10.105385009765625 0.3014999999999999 Q 10.142885009765624 0.29249999999999987 10.180385009765624 0.29249999999999987 Q 10.225385009765624 0.29249999999999987 10.256135009765623 0.31799999999999984 Q 10.286885009765625 0.3434999999999998 10.286885009765625 0.3779999999999999 Q 10.286885009765625 0.4274999999999999 10.261385009765624 0.4492499999999998 Q 10.235885009765624 0.47099999999999986 10.205885009765623 0.47099999999999986 Q 10.177385009765624 0.47099999999999986 10.154135009765625 0.4604999999999999 Q 10.130885009765624 0.44999999999999984 10.100885009765625 0.44999999999999984 Q 10.073885009765624 0.44999999999999984 10.046135009765624 0.4627499999999999 Q 10.018385009765623 0.4754999999999998 9.995135009765624 0.5024999999999998 Q 9.971885009765623 0.5294999999999999 9.957635009765625 0.5692499999999998 Q 9.943385009765624 0.6089999999999999 9.943385009765624 0.6629999999999998 L 9.943385009765624 1.0185 Q 9.943385009765624 1.0574999999999999 9.917885009765625 1.0837499999999998 Q 9.892385009765624 1.1099999999999999 9.853385009765624 1.1099999999999999" fill="#ffffff" fill-rule="nonzero"></path></g><g></g><g clip-path="url(&quot;#SvgjsClipPath1003&quot;)"><g clip-path="url(&quot;#SvgjsClipPath1000&quot;)"><path d=" M -0.9384921366129004 0.2540259231332888 L -0.94294313868109 0.2514530100366847 L -1.0290806918430642 0.20172492897036975 L -1.0430253304709156 0.19367597623500396 L -1.1005925411457336 0.16044480855279689 L -1.1051364157454853 0.15782029960532507 L -1.1060066657634546 0.15731809999021273 L -1.1345219726763511 0.14085558384001703 L -1.164753701561448 0.12339554790637813 L -1.2482873841162976 0.1716204698507468 C -1.3006606124704319 0.20184875901245247 -1.3503818140899646 0.23054637126508193 -1.4081932451255568 0.2639495251168483 L -1.4081932451255568 0.8460504748831512 C -1.3503818140899646 0.8794536287349176 -1.3006606124704319 0.9081546807109382 -1.2482873841162976 0.9383829698726438 L -1.1819385596237915 0.9766739706632797 L -1.1819385596237915 0.40451382149749215 C -1.1819384035337148 0.39836950355858874 -1.1786603865726992 0.39269197818211915 -1.1733392511458267 0.3896198192136687 C -1.125592450752843 0.3620435567865702 -1.0843020111650965 0.3382062736856807 -1.0430115715773507 0.31437587003157336 C -1.009350438471245 0.29492079453104914 -0.9756617875780108 0.27549667654104565 -0.9384921366129004 0.2540259231332888 Z M -1.1475413257119742 0.6955591367955568 C -1.1034303129434584 0.7210406076774315 -1.0645889564102335 0.7434607247411547 -1.0258163943448322 0.7658395651241834 C -0.987043832279431 0.7882184055072117 -0.948236872980118 0.8106178842305878 -0.9040949027010824 0.836113114006027 C -0.8462834716654902 0.8027099601542605 -0.7965588303225664 0.77400890817824 -0.7441821622450412 0.7437771792931429 L -0.6606484796901914 0.6955591367955565 L -0.6606484796901914 0.41444086320444273 L -0.7441821622450412 0.3662228207068563 C -0.7965485111523923 0.33599453154515063 -0.8462937908356635 0.30728316039895637 -0.9040949027010824 0.2738868859939722 C -0.9482093551929892 0.2993649171524559 -0.9870472720028229 0.3217850342161786 -1.0258163943448322 0.3441638745992073 C -1.0645855166868423 0.3665427149822364 -1.1033993554329378 0.38894563342900323 -1.1475413257119742 0.4144374234810513 Z M -0.48479262131602197 0.21500226126033145 C -0.5392778398323415 0.18354943057136489 -0.5909906412953688 0.1537063904294718 -0.6520422917654545 0.11842858732951136 L -0.744168403351476 0.06524702397844963 C -0.7965450714290012 0.035015295093352855 -0.8462697127719251 0.006314243117331926 -0.9040811438075173 -0.027088910734434448 C -0.9482231140865536 -0.0015936809589949079 -0.9870128747689104 0.020795478594207495 -1.0258026354512673 0.043188077870800645 C -1.0594809671743282 0.06262939447776039 -1.093155859173998 0.082056952191155 -1.1303392690326728 0.10353458504569404 L -1.1172683201461826 0.11110197650629414 L -1.0258026354512673 0.1639051702843259 C -0.9845259547570857 0.1877355739384332 -0.9432217562757748 0.21157285703932274 -0.8954783956061722 0.23914911946642736 C -0.8339589427548859 0.2746952209908999 -0.7819228072930874 0.3047308856426996 -0.7269732261189584 0.33644857503278675 L -0.6348367953627628 0.3896370178306307 C -0.6295156599358924 0.39270917679908546 -0.6262376429748812 0.39838670217555716 -0.6262374868848082 0.4045310201144484 L -0.6262374868848082 0.6756981739348731 L -0.591172946635101 0.6554450826075945 L -0.5878226560520899 0.6535119580617506 L -0.5759349720121661 0.6466325112793869 L -0.4847823021458486 0.5940047433943055 L -0.3999793616596532 0.5450540398143976 L -0.3999793616596532 0.2639632840104131 Z M -0.6348436748095457 0.7203801807863247 L -0.7269869850125236 0.7735720633075601 C -0.7819365661866519 0.8052863129742561 -0.833962382478277 0.8353219776260555 -0.8954887147763462 0.8708680791505284 C -0.9008099853812612 0.8739403161667068 -0.9073660611273398 0.8739403161667068 -0.9126873317322548 0.8708680791505284 C -0.9604272526784663 0.8432883770000327 -1.0017176922662137 0.8194545336225342 -1.0430081318539595 0.7956241299684266 C -1.0766830238536287 0.7761862530848587 -1.1103579158532986 0.7567552556480726 -1.1475344462651917 0.7352810625169246 L -1.1475344462651917 0.9965349335239637 C -1.1033924759861562 1.0220267235760119 -1.0646061550271897 1.0444193228526057 -1.0258095148980502 1.0668119221291992 C -0.9870128747689111 1.0892045214057924 -0.9482299935333358 1.1115902412356038 -0.9040880232543002 1.137085471011043 C -0.846276592218708 1.1036823171592764 -0.7965519508757841 1.074981265183256 -0.744175282798259 1.0447495362981587 L -0.6520422917654545 0.991567972947097 C -0.590997520742151 0.9562936095705278 -0.5392847192791245 0.9264471297052436 -0.4847995007628042 0.894994299016277 L -0.3999965602766087 0.846043595436369 L -0.3999965602766087 0.5847862847059387 L -0.4675940043601132 0.6238133863022872 C -0.522092981769998 0.6552593375444709 -0.573798903786243 0.6851058174097554 -0.6348436748095457 0.7203801807863247 Z" fill="#67a97b" transform="matrix(1,0,0,1,0,0)" fill-rule="nonzero"></path></g></g></g><defs><clipPath id="SvgjsClipPath1003"><path d=" M -1.4081829259553826 -0.02708891073443409 h 1.0081829259553827 v 1.164177821468868 h -1.0081829259553827 Z"></path></clipPath><clipPath id="SvgjsClipPath1000"><path d=" M -1.4081829259553826 -0.02708891073443409 L -0.3999999999999999 -0.02708891073443409 L -0.3999999999999999 1.137088910734434 L -1.4081829259553826 1.137088910734434 Z"></path></clipPath></defs></svg>